<svg width="680" height="640" viewBox="0 0 680 640" fill="none" xmlns="http://www.w3.org/2000/svg">
<mask id="path-1-outside-1_66_830" maskUnits="userSpaceOnUse" x="0" y="0" width="1028" height="1028" fill="black">
<rect fill="white" width="1028" height="1028"/>
<path d="M1024 514C1024 795.665 795.665 1024 514 1024C232.335 1024 4 795.665 4 514C4 232.335 232.335 4 514 4C795.665 4 1024 232.335 1024 514ZM97.7074 514C97.7074 743.912 284.088 930.293 514 930.293C743.912 930.293 930.293 743.912 930.293 514C930.293 284.088 743.912 97.7074 514 97.7074C284.088 97.7074 97.7074 284.088 97.7074 514Z"/>
</mask>
<path d="M1024 514C1024 795.665 795.665 1024 514 1024C232.335 1024 4 795.665 4 514C4 232.335 232.335 4 514 4C795.665 4 1024 232.335 1024 514ZM97.7074 514C97.7074 743.912 284.088 930.293 514 930.293C743.912 930.293 930.293 743.912 930.293 514C930.293 284.088 743.912 97.7074 514 97.7074C284.088 97.7074 97.7074 284.088 97.7074 514Z" fill="#212640"/>
<path d="M1024 514C1024 795.665 795.665 1024 514 1024C232.335 1024 4 795.665 4 514C4 232.335 232.335 4 514 4C795.665 4 1024 232.335 1024 514ZM97.7074 514C97.7074 743.912 284.088 930.293 514 930.293C743.912 930.293 930.293 743.912 930.293 514C930.293 284.088 743.912 97.7074 514 97.7074C284.088 97.7074 97.7074 284.088 97.7074 514Z" stroke="url(#paint0_linear_66_830)" stroke-width="8" mask="url(#path-1-outside-1_66_830)"/>
<defs>
<linearGradient id="paint0_linear_66_830" x1="411" y1="4" x2="251.5" y2="582.5" gradientUnits="userSpaceOnUse">
<stop stop-color="#7378DE"/>
<stop offset="1" stop-color="#9C9FE8"/>
</linearGradient>
</defs>
</svg>
