<svg width="320" height="320" viewBox="0 0 320 320" fill="none" xmlns="http://www.w3.org/2000/svg">
<path d="M168.614 90.8428C175.884 80.5599 192.066 85.5878 192.228 98.1801L192.588 126.116C192.661 131.748 196.351 136.692 201.73 138.363L228.41 146.653C240.436 150.39 240.654 167.333 228.729 171.378L202.271 180.354C196.938 182.163 193.376 187.201 193.449 192.832L193.809 220.768C193.971 233.361 177.925 238.804 170.392 228.712L153.68 206.323C150.311 201.81 144.42 199.979 139.086 201.789L112.629 210.764C100.703 214.81 90.5674 201.231 97.8376 190.948L113.966 168.136C117.218 163.537 117.138 157.368 113.769 152.854L97.0576 130.466C89.5246 120.374 99.3066 106.538 111.333 110.275L138.013 118.565C143.391 120.236 149.234 118.254 152.485 113.655L168.614 90.8428Z" fill="#FFB800"/>
<path d="M199.355 90.2364C199.133 73.043 177.039 66.1781 167.113 80.2182L150.833 103.244C146.768 108.993 139.465 111.47 132.742 109.381L105.812 101.014C89.3917 95.9114 76.0355 114.802 86.321 128.582L103.189 151.18C107.4 156.822 107.5 164.533 103.436 170.282L87.1557 193.308C77.229 207.348 91.068 225.888 107.351 220.364L134.057 211.305C140.723 209.043 148.088 211.332 152.299 216.973L169.168 239.572C179.453 253.351 201.362 245.919 201.141 228.725L200.777 200.528C200.686 193.488 205.138 187.191 211.805 184.93L238.51 175.87C254.794 170.346 254.495 147.213 238.075 142.11L211.145 133.743C204.422 131.654 199.809 125.473 199.718 118.434L199.355 90.2364Z" stroke="url(#paint0_linear_66_827)" stroke-width="1.5"/>
<defs>
<linearGradient id="paint0_linear_66_827" x1="197.93" y1="37.9298" x2="126.369" y2="150.197" gradientUnits="userSpaceOnUse">
<stop stop-color="#FFB800"/>
<stop offset="1" stop-color="#FFEAB3"/>
</linearGradient>
</defs>
</svg>
