<svg width="200" height="200" viewBox="0 0 200 200" fill="none" xmlns="http://www.w3.org/2000/svg">
<circle cx="100" cy="100" r="100" fill="#F56969"/>
<g clip-path="url(#clip0_70_114)" filter="url(#filter0_d_70_114)">
<path d="M92.6984 158.889C73.9777 156.549 58.5746 150.117 48.1581 140.289C36.6554 129.438 31.7058 114.685 33.8391 97.6196C38.3535 61.5068 71.4086 35.7977 107.521 40.3121C143.634 44.8264 169.339 77.8809 164.824 113.994C162.691 131.059 154.262 144.14 140.442 151.825C127.941 158.788 111.424 161.23 92.6984 158.889Z" fill="#B0E899"/>
<path d="M163.385 113.818C158.963 149.191 128.257 161.863 92.8794 157.441C91.3531 157.25 89.8399 157.028 88.3492 156.776C121.771 159.586 150.065 146.528 154.296 112.682C156.324 96.4798 152.136 80.1111 142.577 66.873C133.018 53.6349 118.797 44.5111 102.78 41.3395C104.298 41.4204 105.819 41.5576 107.341 41.751C115.754 42.802 123.877 45.5 131.246 49.6908C138.616 53.8816 145.088 59.4831 150.292 66.1754C155.496 72.8678 159.331 80.5198 161.577 88.6945C163.824 96.8692 164.438 105.406 163.385 113.818Z" fill="#89C66D"/>
<path d="M69.4578 84.4597C67.1157 84.1702 64.8692 83.3557 62.8858 82.0768C60.9024 80.7982 59.2332 79.0881 58.0027 77.0745C57.7964 76.744 57.7297 76.3451 57.8175 75.9656C57.9052 75.586 58.1401 75.2568 58.4706 75.0504C58.801 74.8441 59.1998 74.7774 59.5795 74.8652C59.959 74.9529 60.2882 75.1878 60.4946 75.5183C61.5158 77.1886 62.9066 78.6025 64.56 79.6509C66.2135 80.6993 68.0854 81.3543 70.0318 81.5657C71.9782 81.7769 73.9471 81.5388 75.787 80.8696C77.6268 80.2004 79.2887 79.1179 80.6445 77.7056C80.9215 77.4731 81.275 77.3517 81.6364 77.3649C81.9978 77.3782 82.3414 77.5252 82.6006 77.7773C82.8598 78.0296 83.0162 78.3691 83.0392 78.7299C83.0623 79.0909 82.9509 79.4475 82.726 79.7308C81.03 81.4904 78.9494 82.8332 76.6473 83.6537C74.3453 84.474 71.8844 84.75 69.4578 84.4597Z" fill="#333333"/>
<path d="M116.108 90.2913C113.766 90.0018 111.519 89.1872 109.536 87.9083C107.552 86.6297 105.883 84.9197 104.653 82.906C104.447 82.5756 104.38 82.1767 104.467 81.7971C104.555 81.4176 104.79 81.0884 105.121 80.882C105.451 80.6756 105.85 80.609 106.229 80.6967C106.609 80.7844 106.938 81.0194 107.145 81.3498C108.166 83.0202 109.556 84.434 111.21 85.4824C112.863 86.5309 114.735 87.1859 116.682 87.3972C118.628 87.6085 120.597 87.3704 122.437 86.7012C124.277 86.032 125.939 84.9495 127.295 83.5371C127.572 83.3046 127.925 83.1832 128.286 83.1965C128.648 83.2098 128.991 83.3567 129.251 83.6089C129.51 83.8611 129.666 84.2006 129.689 84.5615C129.712 84.9224 129.601 85.2791 129.376 85.5624C127.68 87.3223 125.6 88.6653 123.297 89.4858C120.996 90.3065 118.534 90.582 116.108 90.2913Z" fill="#333333"/>
<path d="M87.9903 120.951C84.6742 120.525 81.502 119.336 78.7221 117.479C75.9425 115.621 73.6308 113.145 71.9684 110.244C71.8492 110.079 71.7661 109.89 71.7243 109.69C71.6827 109.491 71.6833 109.284 71.7263 109.085C71.7692 108.885 71.8535 108.697 71.9737 108.532C72.0939 108.367 72.2473 108.229 72.4241 108.127C72.6009 108.026 72.797 107.962 72.9999 107.941C73.2028 107.919 73.408 107.94 73.6021 108.003C73.7963 108.066 73.9751 108.169 74.127 108.305C74.279 108.441 74.4007 108.608 74.4843 108.794C75.8897 111.263 77.8423 113.376 80.192 114.972C82.5419 116.568 85.2261 117.604 88.0387 118.001C90.8518 118.398 93.7177 118.145 96.4174 117.261C99.117 116.377 101.578 114.886 103.611 112.902C103.889 112.632 104.263 112.483 104.65 112.489C104.842 112.492 105.031 112.532 105.207 112.608C105.383 112.684 105.542 112.794 105.676 112.931C105.81 113.069 105.915 113.231 105.986 113.409C106.057 113.588 106.092 113.778 106.089 113.969C106.086 114.162 106.046 114.351 105.97 114.527C105.894 114.703 105.784 114.862 105.647 114.996C103.342 117.254 100.557 118.962 97.4995 119.993C94.4425 121.024 91.1919 121.351 87.9903 120.951Z" fill="#333333"/>
</g>
<defs>
<filter id="filter0_d_70_114" x="23.115" y="32" width="153.912" height="143.453" filterUnits="userSpaceOnUse" color-interpolation-filters="sRGB">
<feFlood flood-opacity="0" result="BackgroundImageFix"/>
<feColorMatrix in="SourceAlpha" type="matrix" values="0 0 0 0 0 0 0 0 0 0 0 0 0 0 0 0 0 0 127 0" result="hardAlpha"/>
<feOffset dy="4"/>
<feGaussianBlur stdDeviation="2"/>
<feComposite in2="hardAlpha" operator="out"/>
<feColorMatrix type="matrix" values="0 0 0 0 0 0 0 0 0 0 0 0 0 0 0 0 0 0 0.25 0"/>
<feBlend mode="normal" in2="BackgroundImageFix" result="effect1_dropShadow_70_114"/>
<feBlend mode="normal" in="SourceGraphic" in2="effect1_dropShadow_70_114" result="shape"/>
</filter>
<clipPath id="clip0_70_114">
<rect width="132.046" height="120" fill="white" transform="translate(42 32) rotate(7.12542)"/>
</clipPath>
</defs>
</svg>
