<svg width="864" height="1024" viewBox="0 0 864 1024" fill="none" xmlns="http://www.w3.org/2000/svg">
<g clip-path="url(#clip0_79_186)">
<rect width="864" height="1024" fill="#FFF5CB"/>
<g clip-path="url(#clip1_79_186)">
<path d="M-3.0426 522.029C8.08483 519.029 19.861 519.48 30.7266 523.322L127.075 556.562C135.918 559.597 145.367 560.444 154.61 559.029C163.852 557.614 172.613 553.981 180.145 548.439L262.083 487.911C270.74 481.502 281.02 477.646 291.756 476.782C302.492 475.919 313.258 478.079 322.827 483.022C332.399 487.964 340.393 495.488 345.905 504.743C351.415 513.998 354.226 524.61 354.011 535.38L352.191 637.269C352.016 646.622 354.121 655.876 358.321 664.235C362.523 672.592 368.695 679.802 376.305 685.241L459.264 744.482C468.044 750.731 474.896 759.316 479.043 769.262C483.19 779.208 484.466 790.117 482.725 800.754C480.985 811.387 476.298 821.321 469.197 829.428C462.094 837.533 452.864 843.487 442.55 846.61L345.063 876.336C336.116 879.061 327.967 883.927 321.316 890.505C314.669 897.086 309.721 905.185 306.903 914.105L276.241 1011.25C273.006 1021.52 266.957 1030.69 258.777 1037.7C250.599 1044.71 240.618 1049.29 229.967 1050.92C219.316 1052.55 208.424 1051.16 198.523 1046.91C188.622 1042.66 180.111 1035.72 173.954 1026.88L115.556 943.389C110.197 935.718 103.052 929.468 94.7358 925.175C86.4208 920.885 77.1857 918.683 67.8293 918.761L-34.0661 919.521C-44.8364 919.619 -55.4184 916.699 -64.6129 911.089C-73.8072 905.479 -81.2465 897.403 -86.0862 887.781C-90.9252 878.161 -92.9725 867.374 -91.9944 856.649C-91.0169 845.921 -87.0532 835.684 -80.5532 827.096L-19.196 745.735C-13.559 738.27 -9.82357 729.546 -8.31152 720.315C-6.79981 711.084 -7.55706 701.624 -10.5182 692.751L-42.7381 596.077C-45.2496 588.609 -46.2035 580.706 -45.5411 572.856C-44.8788 565.005 -42.6143 557.374 -38.8871 550.433C-35.1602 543.492 -30.0498 537.388 -23.8716 532.499C-17.6935 527.611 -10.5787 524.04 -2.96674 522.009M-5.71013 511.894C-14.7421 514.376 -23.1745 518.671 -30.4939 524.515C-37.8135 530.36 -43.867 537.634 -48.2863 545.892C-52.6789 554.025 -55.3448 562.978 -56.1167 572.189C-56.8883 581.4 -55.7493 590.672 -52.7712 599.422L-20.5511 696.097C-18.1405 703.373 -17.5396 711.126 -18.8002 718.687C-20.0609 726.247 -23.1452 733.386 -27.7863 739.486L-89.1435 820.847C-96.8221 830.995 -101.504 843.092 -102.659 855.768C-103.814 868.441 -101.395 881.185 -95.6779 892.554C-89.9606 903.923 -81.1721 913.465 -70.31 920.094C-59.4472 926.725 -46.9443 930.181 -34.2188 930.069L67.6766 929.308C75.3303 929.244 82.8846 931.045 89.6874 934.556C96.4898 938.064 102.336 943.176 106.721 949.45L165.126 1032.97C172.406 1043.41 182.466 1051.61 194.165 1056.62C205.865 1061.64 218.736 1063.28 231.319 1061.35C243.903 1059.43 255.694 1054.01 265.359 1045.73C275.021 1037.44 282.169 1026.61 285.991 1014.47L316.66 917.349C318.964 910.049 323.011 903.419 328.45 898.031C333.89 892.644 340.561 888.663 347.882 886.43L445.337 856.686C457.514 852.987 468.415 845.953 476.798 836.377C485.182 826.8 490.714 815.068 492.773 802.508C494.828 789.948 493.324 777.065 488.432 765.315C483.538 753.565 475.452 743.423 465.09 736.034L382.487 676.805C376.263 672.345 371.217 666.44 367.776 659.6C364.338 652.759 362.61 645.186 362.741 637.53L364.591 535.551C364.843 525.002 362.617 514.54 358.09 505.007C353.561 495.476 346.859 487.14 338.521 480.671C326.824 471.373 312.377 466.212 297.434 465.997C282.493 465.781 267.903 470.521 255.941 479.478L173.945 539.995C167.782 544.529 160.613 547.502 153.051 548.659C145.487 549.817 137.758 549.124 130.52 546.642L34.1392 513.384C21.2817 508.881 7.36532 508.36 -5.79282 511.889L-5.71013 511.894Z" fill="#333333"/>
<path d="M459.264 744.482L376.356 685.228C368.745 679.789 362.574 672.579 358.371 664.221C354.171 655.863 352.066 646.609 352.241 637.256L354.062 535.366C354.942 487.565 300.614 459.516 262.133 487.897L259.716 489.693C273.471 491.863 285.977 498.938 294.921 509.612C303.864 520.286 308.639 533.837 308.367 547.76L306.547 649.649C306.372 659.002 308.477 668.256 312.677 676.614C316.879 684.972 323.051 692.182 330.661 697.621L413.544 756.882C422.325 763.131 429.176 771.716 433.323 781.662C437.47 791.608 438.746 802.518 437.005 813.154C435.266 823.787 430.579 833.723 423.477 841.828C416.374 849.934 407.144 855.888 396.83 859.011L299.369 888.729C290.422 891.454 282.272 896.32 275.622 902.899C268.975 909.48 264.026 917.579 261.208 926.498L230.546 1023.64C227.244 1034.3 220.902 1043.75 212.299 1050.85C225.938 1053 239.897 1050.19 251.635 1042.92C263.375 1035.65 272.114 1024.41 276.266 1011.24L306.928 914.098C309.746 905.179 314.694 897.079 321.341 890.499C327.992 883.92 336.141 879.054 345.088 876.329L442.575 846.604C452.885 843.476 462.112 837.52 469.209 829.414C476.308 821.307 480.99 811.375 482.727 800.742C484.465 790.107 483.188 779.201 479.041 769.257C474.894 759.311 468.041 750.729 459.264 744.482Z" fill="#FFBD39"/>
<path d="M131.066 677.705C137.332 681.225 142.721 686.113 146.834 692.006C150.946 697.899 153.675 704.644 154.817 711.739C154.955 712.332 154.968 712.946 154.858 713.545C154.749 714.143 154.517 714.713 154.178 715.219C153.84 715.724 153.401 716.155 152.89 716.485C152.378 716.814 151.804 717.036 151.204 717.135C150.604 717.234 149.989 717.209 149.399 717.062C148.808 716.914 148.254 716.648 147.771 716.278C147.288 715.908 146.885 715.443 146.588 714.912C146.292 714.38 146.107 713.794 146.046 713.188C145.088 707.305 142.795 701.719 139.343 696.86C135.89 692.001 131.37 687.997 126.13 685.157C120.889 682.316 115.068 680.714 109.112 680.474C103.154 680.235 97.2238 681.362 91.7709 683.772C90.7111 684.144 89.5506 684.103 88.5205 683.655C87.488 683.209 86.6647 682.389 86.2141 681.36C85.7634 680.331 85.7177 679.17 86.0841 678.109C86.4528 677.048 87.2096 676.165 88.2013 675.637C95.0212 672.646 102.439 671.277 109.877 671.636C117.314 671.995 124.567 674.072 131.066 677.705Z" fill="#333333"/>
<path d="M248.832 765.776C254.421 770.299 258.917 776.025 261.985 782.529C265.056 789.029 266.618 796.141 266.556 803.331C266.582 803.935 266.487 804.536 266.272 805.101C266.057 805.665 265.732 806.183 265.312 806.618C264.895 807.052 264.389 807.397 263.833 807.63C263.277 807.865 262.678 807.985 262.073 807.978C261.47 807.975 260.872 807.849 260.32 807.604C259.765 807.363 259.268 807.011 258.855 806.57C258.442 806.129 258.124 805.609 257.918 805.041C257.712 804.473 257.624 803.869 257.66 803.266C257.7 797.306 256.374 791.414 253.785 786.047C251.195 780.677 247.41 775.973 242.717 772.295C238.026 768.616 232.556 766.063 226.722 764.83C220.891 763.596 214.856 763.715 209.076 765.177C208.494 765.37 207.879 765.442 207.268 765.386C206.657 765.33 206.066 765.149 205.528 764.853C204.991 764.559 204.519 764.156 204.144 763.67C203.769 763.185 203.501 762.626 203.351 762.032C203.203 761.437 203.179 760.818 203.279 760.213C203.382 759.608 203.607 759.03 203.942 758.518C204.276 758.004 204.713 757.565 205.226 757.226C205.737 756.891 206.313 756.664 206.919 756.56C214.143 754.754 221.685 754.644 228.959 756.244C236.229 757.842 243.032 761.106 248.832 765.776Z" fill="#333333"/>
<path d="M150.624 799.932C146.642 800.957 142.478 801.055 138.453 800.214C134.428 799.375 130.649 797.62 127.41 795.089C124.17 792.556 121.556 789.315 119.769 785.61C117.981 781.906 117.07 777.843 117.103 773.731C117.107 772.414 116.588 771.148 115.66 770.214C114.734 769.292 113.48 768.774 112.172 768.771C110.865 768.77 109.61 769.286 108.682 770.206C108.221 770.657 107.855 771.196 107.606 771.79C107.357 772.384 107.229 773.022 107.231 773.667C107.219 779.38 108.531 785.018 111.065 790.14C113.598 795.26 117.284 799.722 121.833 803.18C126.222 806.536 131.312 808.856 136.724 809.97C142.135 811.081 147.728 810.96 153.085 809.607C154.265 809.192 155.247 808.348 155.828 807.24C156.41 806.132 156.553 804.847 156.225 803.638C155.898 802.432 155.125 801.393 154.063 800.731C153.001 800.069 151.727 799.836 150.5 800.074L150.624 799.932Z" fill="#333333"/>
</g>
<g clip-path="url(#clip2_79_186)">
<path d="M495.327 330.993C494.301 322.334 495.929 313.567 499.996 305.854L535.439 237.367C538.68 231.08 540.349 224.099 540.303 217.025C540.257 209.95 538.497 202.994 535.174 196.748L498.84 128.773C494.99 121.59 493.231 113.472 493.761 105.34C494.29 97.2078 497.088 89.3846 501.837 82.7627C506.585 76.1388 513.094 70.9786 520.626 67.8659C528.159 64.7553 536.412 63.8143 544.451 65.1551L620.529 77.6837C627.511 78.8399 634.67 78.2779 641.387 76.0497C648.105 73.8196 654.178 69.9896 659.085 64.8881L712.525 9.27484C718.165 3.38644 725.344 -0.801792 733.244 -2.81658C741.144 -4.83136 749.451 -4.59088 757.223 -2.1218C764.992 0.345538 771.916 4.94308 777.207 11.1482C782.496 17.3535 785.942 24.9162 787.15 32.9793L798.72 109.219C799.78 116.215 802.529 122.849 806.725 128.549C810.923 134.246 816.444 138.839 822.813 141.925L892.177 175.526C899.515 179.073 905.714 184.606 910.067 191.499C914.421 198.39 916.756 206.363 916.808 214.515C916.859 222.667 914.625 230.67 910.36 237.616C906.092 244.562 899.965 250.173 892.672 253.814L823.766 288.383C817.436 291.554 811.974 296.218 807.85 301.973C803.727 307.728 801.066 314.4 800.099 321.413L789.502 397.778C788.395 405.852 785.049 413.454 779.841 419.723C774.634 425.991 767.773 430.675 760.039 433.244C752.307 435.812 744.007 436.163 736.085 434.255C728.161 432.348 720.932 428.259 715.215 422.451L661.03 367.601C656.059 362.563 649.937 358.811 643.192 356.667C636.448 354.524 629.282 354.054 622.315 355.299L546.411 368.825C540.546 369.887 534.524 369.735 528.72 368.379C522.915 367.022 517.45 364.491 512.663 360.94C507.875 357.389 503.866 352.895 500.883 347.734C497.9 342.573 496.007 336.855 495.32 330.934M487.447 331.879C488.316 338.913 490.607 345.696 494.18 351.816C497.754 357.937 502.535 363.265 508.234 367.479C513.841 371.659 520.251 374.635 527.062 376.223C533.873 377.81 540.939 377.973 547.816 376.703L623.721 363.176C629.432 362.169 635.302 362.569 640.824 364.341C646.346 366.113 651.352 369.205 655.41 373.348L709.596 428.197C716.351 435.058 724.894 439.889 734.257 442.142C743.618 444.396 753.424 443.982 762.561 440.948C771.699 437.913 779.806 432.38 785.959 424.974C792.113 417.569 796.071 408.588 797.381 399.049L807.978 322.683C808.769 316.947 810.945 311.489 814.319 306.781C817.691 302.073 822.158 298.256 827.335 295.661L896.261 261.09C904.876 256.785 912.114 250.151 917.15 241.943C922.189 233.734 924.827 224.277 924.762 214.646C924.7 205.014 921.94 195.594 916.795 187.451C911.651 179.309 904.327 172.771 895.655 168.579L826.311 134.976C821.098 132.452 816.578 128.696 813.141 124.033C809.704 119.37 807.455 113.94 806.586 108.214L794.998 31.997C793.564 22.4757 789.492 13.5445 783.242 6.21867C776.991 -1.10715 768.814 -6.5345 759.637 -9.45177C750.46 -12.3671 740.65 -12.6527 731.318 -10.2783C721.985 -7.90185 713.506 -2.9604 706.839 3.98769L653.446 59.3357C649.425 63.5063 644.452 66.6371 638.954 68.4633C633.456 70.2875 627.597 70.7514 621.88 69.8145L545.738 57.2537C537.868 55.9085 529.792 56.4289 522.16 58.7729C514.528 61.1189 507.553 65.2228 501.797 70.7558C493.554 78.4941 488.107 88.7438 486.308 99.9072C484.509 111.069 486.459 122.511 491.853 132.447L528.173 200.464C530.892 205.574 532.332 211.267 532.369 217.055C532.407 222.845 531.042 228.555 528.39 233.701L492.93 302.21C488.15 311.342 486.235 321.703 487.435 331.941L487.447 331.879Z" fill="#333333"/>
<path d="M712.525 9.27482L659.08 64.8487C654.174 69.9502 648.1 73.7802 641.383 76.0103C634.665 78.2385 627.507 78.8005 620.524 77.6443L544.446 65.1157C508.757 59.2181 481.805 96.8161 498.835 128.734L499.914 130.741C503.046 120.681 509.713 112.094 518.684 106.568C527.655 101.042 538.324 98.9528 548.716 100.682L624.794 113.21C631.777 114.367 638.936 113.805 645.653 111.576C652.37 109.346 658.444 105.516 663.35 100.415L716.798 44.8606C722.438 38.9722 729.616 34.784 737.517 32.7692C745.417 30.7544 753.724 30.9949 761.495 33.464C769.265 35.9313 776.19 40.5286 781.48 46.734C786.769 52.9393 790.215 60.502 791.423 68.5651L802.99 144.785C804.05 151.781 806.799 158.415 810.996 164.115C815.194 169.813 820.715 174.405 827.083 177.492L896.447 211.092C904.062 214.732 910.447 220.516 914.817 227.734C917.924 217.76 917.347 207.001 913.192 197.417C909.036 187.831 901.578 180.057 892.174 175.506L822.81 141.906C816.442 138.819 810.921 134.227 806.723 128.529C802.526 122.83 799.777 116.196 798.717 109.199L787.147 32.9596C785.936 24.899 782.488 17.3384 777.198 11.1373C771.906 4.93417 764.984 0.34056 757.214 -2.12481C749.443 -4.59192 741.138 -4.83067 733.24 -2.81612C725.339 -0.80134 718.164 3.38863 712.525 9.27482Z" fill="#FFBD39"/>
<path d="M626.568 247.655C629.889 243.351 634.139 239.851 639.001 237.418C643.864 234.985 649.212 233.682 654.649 233.604C655.108 233.566 655.569 233.623 656.005 233.771C656.441 233.919 656.843 234.155 657.184 234.464C657.525 234.773 657.8 235.148 657.991 235.567C658.181 235.986 658.284 236.44 658.293 236.901C658.301 237.361 658.215 237.818 658.04 238.244C657.865 238.67 657.605 239.055 657.275 239.377C656.945 239.698 656.553 239.948 656.122 240.112C655.692 240.276 655.233 240.35 654.773 240.33C650.263 240.402 645.83 241.506 641.814 243.558C637.798 245.61 634.306 248.556 631.605 252.167C628.904 255.78 627.067 259.962 626.234 264.394C625.402 268.828 625.596 273.392 626.803 277.738C626.966 278.572 626.807 279.436 626.359 280.158C625.912 280.882 625.208 281.409 624.388 281.633C623.568 281.858 622.694 281.765 621.94 281.375C621.186 280.982 620.608 280.319 620.322 279.519C618.83 274.085 618.618 268.382 619.701 262.853C620.785 257.325 623.135 252.123 626.568 247.655Z" fill="#333333"/>
<path d="M705.405 169.143C709.404 165.455 714.184 162.717 719.388 161.133C724.591 159.546 730.087 159.156 735.462 159.99C735.918 160.037 736.357 160.175 736.756 160.397C737.155 160.62 737.507 160.92 737.787 161.282C738.066 161.642 738.269 162.059 738.382 162.501C738.498 162.942 738.521 163.404 738.45 163.856C738.382 164.307 738.222 164.741 737.978 165.128C737.737 165.516 737.419 165.85 737.043 166.111C736.668 166.372 736.244 166.553 735.796 166.645C735.348 166.737 734.886 166.737 734.439 166.643C729.981 165.96 725.425 166.307 721.124 167.657C716.82 169.008 712.884 171.326 709.616 174.436C706.348 177.545 703.836 181.36 702.274 185.592C700.711 189.822 700.139 194.354 700.6 198.841C700.681 199.297 700.667 199.766 700.559 200.217C700.45 200.668 700.249 201.091 699.969 201.461C699.69 201.831 699.336 202.14 698.932 202.367C698.528 202.595 698.08 202.735 697.618 202.782C697.157 202.827 696.691 202.778 696.249 202.636C695.807 202.493 695.399 202.261 695.053 201.955C694.704 201.648 694.423 201.272 694.226 200.851C694.031 200.432 693.925 199.976 693.913 199.511C693.352 193.905 694.097 188.246 696.092 182.977C698.085 177.709 701.274 172.974 705.405 169.143Z" fill="#333333"/>
<path d="M720.213 246.408C720.544 249.502 720.161 252.63 719.09 255.551C718.022 258.472 716.294 261.109 714.044 263.256C711.792 265.404 709.079 267.006 706.11 267.938C703.141 268.87 699.999 269.107 696.925 268.632C695.939 268.485 694.935 268.735 694.134 269.326C693.342 269.919 692.817 270.801 692.671 271.78C692.527 272.758 692.776 273.754 693.363 274.55C693.65 274.944 694.014 275.277 694.431 275.529C694.849 275.781 695.312 275.946 695.795 276.015C700.07 276.65 704.435 276.286 708.548 274.95C712.658 273.615 716.403 271.345 719.489 268.318C722.483 265.4 724.778 261.844 726.205 257.915C727.63 253.986 728.152 249.785 727.726 245.626C727.545 244.698 727.02 243.87 726.254 243.313C725.489 242.756 724.543 242.508 723.602 242.621C722.663 242.734 721.8 243.199 721.188 243.921C720.576 244.644 720.262 245.572 720.306 246.517L720.213 246.408Z" fill="#333333"/>
</g>
<path d="M144.5 548C144.5 548 109.385 364.908 186.5 311.5C255.78 263.518 322.408 359.092 401.5 330C467.115 305.865 537 213 537 213" stroke="#7378DE" stroke-width="4" stroke-dasharray="8 8"/>
</g>
<defs>
<clipPath id="clip0_79_186">
<rect width="864" height="1024" fill="white"/>
</clipPath>
<clipPath id="clip1_79_186">
<rect width="600" height="594.76" fill="white" transform="translate(-188 560.059) rotate(-15.1748)"/>
</clipPath>
<clipPath id="clip2_79_186">
<rect width="453.965" height="450" fill="white" transform="translate(503.528 473.625) rotate(-96.8467)"/>
</clipPath>
</defs>
</svg>
