<svg width="111" height="28" viewBox="0 0 111 28" fill="none" xmlns="http://www.w3.org/2000/svg">
<g clip-path="url(#clip0_1324_5076)">
<path fill-rule="evenodd" clip-rule="evenodd" d="M26.0064 25.9687C27.7184 26.9154 29.6501 27.3951 31.6068 27.3594C33.5683 27.3935 35.5044 26.9141 37.2225 25.9687C38.8456 25.074 40.1753 23.7303 41.052 22.0991C41.9711 20.3642 42.4296 18.4231 42.3841 16.461C42.4213 14.499 41.9467 12.5611 41.0067 10.8379C40.1257 9.20976 38.797 7.86712 37.1771 6.96828C35.459 6.02295 33.5228 5.54349 31.5615 5.57764C29.6047 5.54189 27.6731 6.02153 25.9609 6.96828C24.3502 7.869 23.0316 9.21192 22.1616 10.8379C21.2216 12.5611 20.747 14.499 20.7843 16.461C20.7457 18.4278 21.2204 20.3709 22.1616 22.0991C23.048 23.7283 24.3819 25.0708 26.0064 25.9687ZM35.2851 16.461C35.2851 19.4841 34.059 20.9957 31.6068 20.9957C29.1548 20.9957 27.9741 19.4841 27.9741 16.461C27.9741 13.4378 29.185 11.8506 31.6068 11.8506C34.0287 11.8506 35.2851 13.3925 35.2851 16.461Z" fill="white"/>
<path fill-rule="evenodd" clip-rule="evenodd" d="M1.3944 10.853C0.448056 12.5963 -0.0316083 14.5539 0.00183734 16.5366C-0.0336741 18.5194 0.446117 20.4776 1.3944 22.2201C2.29664 23.8542 3.65287 25.1927 5.29962 26.0746C7.09758 27.0078 9.10128 27.4756 11.1272 27.435C12.6481 27.4822 14.1597 27.1823 15.547 26.5582C16.6558 26.0556 17.6306 25.2997 18.3927 24.3514C18.9868 23.6154 19.3077 22.6968 19.301 21.7515C19.3211 21.3596 19.2496 20.9683 19.0919 20.6089C18.9343 20.2494 18.6949 19.9316 18.3927 19.6806C17.8194 19.1905 17.0889 18.9222 16.3342 18.9249C15.6334 18.9613 14.9615 19.2149 14.4118 19.6504L13.7307 20.255C13.4362 20.5226 13.105 20.7466 12.7468 20.9202C12.2259 21.1182 11.6681 21.2006 11.1121 21.162C10.5647 21.193 10.0177 21.0972 9.51352 20.8822C9.00944 20.6672 8.56184 20.3387 8.20584 19.9225C7.47986 18.9537 7.12061 17.7596 7.1917 16.5517C7.12061 15.3438 7.47986 14.1497 8.20584 13.1809C8.56264 12.7655 9.01032 12.4377 9.51424 12.2228C10.0182 12.0078 10.5649 11.9116 11.1121 11.9414C11.6332 11.9246 12.1511 12.0281 12.6257 12.2438C13.0203 12.4513 13.3782 12.7218 13.6853 13.0449C13.904 13.29 14.1419 13.5174 14.3967 13.725C14.9474 14.1526 15.6216 14.3911 16.319 14.4053C16.6986 14.4016 17.0735 14.3222 17.4219 14.1716C17.7702 14.021 18.0849 13.8024 18.3474 13.5286C18.6482 13.2496 18.8862 12.9099 19.0454 12.532C19.2046 12.1541 19.2814 11.7466 19.2706 11.3368C19.2827 10.3886 18.9674 9.46505 18.3776 8.72177C17.6106 7.78221 16.6368 7.03214 15.5319 6.53C14.137 5.91313 12.6221 5.61368 11.097 5.65329C9.07608 5.61524 7.07791 6.08292 5.28449 7.01369C3.64231 7.88958 2.29071 9.22353 1.3944 10.853Z" fill="white"/>
<path fill-rule="evenodd" clip-rule="evenodd" d="M68.6007 10.8531C67.6544 12.5963 67.1747 14.554 67.2081 16.5366C67.1726 18.5194 67.6525 20.4776 68.6007 22.2201C69.5084 23.8552 70.8697 25.1937 72.5211 26.0746C74.3145 27.0054 76.3127 27.473 78.3335 27.435C79.8593 27.4818 81.3761 27.1821 82.7689 26.5583C83.8721 26.0477 84.8457 25.293 85.6145 24.3514C86.1977 23.6104 86.5121 22.694 86.5073 21.7515C86.5321 21.3562 86.4641 20.9605 86.3089 20.5958C86.1537 20.2312 85.9161 19.9075 85.6145 19.6504C85.0409 19.1602 84.3105 18.8921 83.5553 18.8946C82.8593 18.914 82.1865 19.152 81.6337 19.5749L80.9369 20.1795C80.6449 20.4504 80.3137 20.6747 79.9531 20.8446C79.4398 21.053 78.8869 21.146 78.3335 21.1166C77.7861 21.1488 77.2386 21.0536 76.7343 20.8386C76.23 20.6234 75.7825 20.2943 75.4273 19.8772C74.6959 18.9104 74.3313 17.7162 74.398 16.5064C74.3313 15.2966 74.6959 14.1023 75.4273 13.1356C75.7825 12.7184 76.23 12.3893 76.7343 12.1742C77.2386 11.9591 77.7861 11.8639 78.3335 11.8961C78.8549 11.8765 79.3734 11.9801 79.8472 12.1984C80.2465 12.4054 80.6097 12.676 80.9217 12.9995C81.1409 13.2395 81.3729 13.4666 81.6185 13.6798C82.1697 14.1054 82.8433 14.3437 83.5409 14.3599C84.3113 14.3498 85.0465 14.0345 85.5841 13.4832C85.8801 13.2012 86.1137 12.8606 86.2697 12.4831C86.4265 12.1057 86.5017 11.6998 86.4921 11.2914C86.5121 10.342 86.1953 9.41608 85.5993 8.67648C84.8321 7.73688 83.8585 6.98682 82.7537 6.48467C81.3633 5.86904 79.8537 5.56959 78.3335 5.60796C76.3076 5.56738 74.3039 6.03514 72.5059 6.96838C70.8561 7.84595 69.4987 9.1856 68.6007 10.8229V10.8531Z" fill="white"/>
<path fill-rule="evenodd" clip-rule="evenodd" d="M109.742 16.5366C109.742 9.28104 106.714 5.65327 100.66 5.65327C99.0184 5.63045 97.4184 6.16323 96.1192 7.16484V3.88474C96.1792 1.28483 95.0288 0 92.7128 0C90.3976 0 89.2016 1.28483 89.2016 3.88474V23.5351C89.1336 24.5743 89.4392 25.6036 90.064 26.4374C90.4 26.7967 90.8128 27.0758 91.2712 27.2537C91.7296 27.4317 92.2224 27.504 92.7128 27.4652C95.0288 27.4652 96.1792 26.1502 96.1792 23.5351V16.9598C96.1072 15.6334 96.3456 14.3084 96.876 13.0902C97.2 12.7107 97.6024 12.406 98.056 12.197C98.5088 11.988 99.0024 11.8798 99.5016 11.8798C100.002 11.8798 100.494 11.988 100.948 12.197C101.402 12.406 101.804 12.7107 102.128 13.0902C102.648 14.3109 102.876 15.6358 102.794 16.9598V23.4898C102.794 26.1048 103.945 27.4198 106.26 27.4198C106.751 27.4598 107.244 27.388 107.703 27.2099C108.162 27.0319 108.574 26.7522 108.91 26.392C109.534 25.5582 109.84 24.529 109.772 23.4898V16.5366H109.742Z" fill="white"/>
<path fill-rule="evenodd" clip-rule="evenodd" d="M64.544 8.78225C64.5815 8.40633 64.5196 8.02713 64.3646 7.68254C64.2096 7.33794 63.9669 7.03992 63.6606 6.81818C63.3543 6.59645 62.9952 6.45873 62.6191 6.41877C62.2429 6.37881 61.8628 6.43801 61.5167 6.59044C56.9757 8.38921 56.6276 13.1658 56.6276 17.2923C56.6276 20.2248 56.7638 23.3386 54.8566 23.3386C52.9494 23.3386 53.1764 20.3155 53.1764 17.5342C53.1764 13.1809 52.9797 8.46481 48.0603 6.66601C46.5769 6.04627 45.4114 7.14972 45.4114 8.81241C45.3206 12.8937 45.3357 18.7737 46.1683 20.9957C46.7623 22.8595 47.9344 24.4865 49.5153 25.6413C51.0962 26.7962 53.0039 27.419 54.9626 27.4198C56.9727 27.4242 58.9308 26.783 60.5479 25.5909C62.0623 24.4283 63.2082 22.8536 63.8477 21.0562C64.6803 18.8946 64.6499 12.9239 64.544 8.78225Z" fill="white"/>
<path fill-rule="evenodd" clip-rule="evenodd" d="M54.9172 0C55.6327 0 56.3321 0.211878 56.9271 0.608842C57.522 1.00581 57.9856 1.57002 58.2595 2.23015C58.5332 2.89027 58.6049 3.61666 58.4653 4.31744C58.3257 5.01823 57.9812 5.66194 57.4752 6.16718C56.9693 6.67242 56.3247 7.01649 55.623 7.15589C54.9212 7.29528 54.1938 7.22374 53.5328 6.9503C52.8717 6.67687 52.3068 6.21383 51.9092 5.61974C51.5117 5.02563 51.2996 4.32717 51.2996 3.61265C51.2996 2.65452 51.6807 1.73562 52.3592 1.05812C53.0376 0.380618 53.9577 0 54.9172 0Z" fill="#FFBD39"/>
</g>
<defs>
<clipPath id="clip0_1324_5076">
<rect width="110.4" height="28" fill="white"/>
</clipPath>
</defs>
</svg>
