<svg width="95" height="24" viewBox="0 0 95 24" fill="none" xmlns="http://www.w3.org/2000/svg">
<g clip-path="url(#clip0_70_278)">
<path fill-rule="evenodd" clip-rule="evenodd" d="M22.8214 22.259C24.289 23.0704 25.9447 23.4815 27.6219 23.4509C29.3031 23.4802 30.9626 23.0692 32.4353 22.259C33.8265 21.492 34.9663 20.3403 35.7178 18.9421C36.5055 17.4551 36.8986 15.7912 36.8595 14.1094C36.8915 12.4278 36.4846 10.7667 35.6788 9.28965C34.9238 7.89415 33.7848 6.7433 32.3964 5.97286C30.9237 5.16257 29.2641 4.75161 27.583 4.78088C25.9058 4.75024 24.25 5.16136 22.7826 5.97286C21.4019 6.7449 20.2717 7.89593 19.526 9.28965C18.7203 10.7667 18.3134 12.4278 18.3454 14.1094C18.3124 15.7954 18.7192 17.4608 19.526 18.9421C20.2857 20.3386 21.4291 21.4893 22.8214 22.259ZM30.7746 14.1094C30.7746 16.7007 29.7237 17.9963 27.6219 17.9963C25.5201 17.9963 24.5081 16.7007 24.5081 14.1094C24.5081 11.5182 25.546 10.1578 27.6219 10.1578C29.6978 10.1578 30.7746 11.4793 30.7746 14.1094Z" fill="#7378DE"/>
<path fill-rule="evenodd" clip-rule="evenodd" d="M1.72547 9.30261C0.914324 10.7969 0.503181 12.4748 0.531848 14.1742C0.501409 15.8738 0.912658 17.5522 1.72547 19.0458C2.49882 20.4464 3.66131 21.5938 5.07281 22.3496C6.61391 23.1496 8.33141 23.5505 10.0678 23.5157C11.3715 23.5561 12.6672 23.2991 13.8563 22.7642C14.8067 22.3334 15.6422 21.6854 16.2955 20.8726C16.8047 20.2417 17.0797 19.4544 17.0739 18.6442C17.0913 18.3082 17.03 17.9729 16.8948 17.6648C16.7597 17.3566 16.5545 17.0842 16.2955 16.8691C15.804 16.449 15.1779 16.2191 14.531 16.2213C13.9304 16.2525 13.3544 16.4699 12.8832 16.8432L12.2994 17.3615C12.0471 17.5908 11.7631 17.7828 11.4561 17.9316C11.0096 18.1013 10.5315 18.172 10.0549 18.1389C9.58578 18.1654 9.11682 18.0833 8.68476 17.8991C8.25262 17.7148 7.86903 17.4332 7.56389 17.0764C6.9416 16.246 6.63365 15.2225 6.69458 14.1872C6.63365 13.1518 6.9416 12.1283 7.56389 11.2979C7.86965 10.9419 8.25337 10.6609 8.6853 10.4767C9.1173 10.2924 9.58592 10.2099 10.0549 10.2355C10.5016 10.2211 10.9456 10.3098 11.3523 10.4947C11.6905 10.6725 11.9973 10.9044 12.2605 11.1813C12.448 11.3914 12.6519 11.5864 12.8703 11.7643C13.3423 12.1308 13.9203 12.3353 14.518 12.3474C14.8434 12.3442 15.1648 12.2761 15.4633 12.1471C15.7619 12.018 16.0316 11.8306 16.2565 11.5959C16.5145 11.3568 16.7184 11.0657 16.8549 10.7417C16.9914 10.4178 17.0572 10.0686 17.048 9.71726C17.0583 8.90449 16.788 8.1129 16.2825 7.4758C15.6251 6.67046 14.7904 6.02755 13.8434 5.59714C12.6476 5.0684 11.3492 4.81173 10.0419 4.84568C8.30981 4.81306 6.59706 5.21393 5.05984 6.01174C3.65225 6.7625 2.49374 7.90588 1.72547 9.30261Z" fill="#7378DE"/>
<path fill-rule="evenodd" clip-rule="evenodd" d="M59.3307 9.30268C58.5196 10.7969 58.1084 12.4749 58.1371 14.1743C58.1066 15.8738 58.5179 17.5523 59.3307 19.0459C60.1087 20.4474 61.2756 21.5947 62.691 22.3497C64.2283 23.1475 65.941 23.5484 67.6731 23.5158C68.9807 23.5559 70.2808 23.2989 71.4746 22.7643C72.4209 22.3266 73.2547 21.6798 73.9137 20.8727C74.4136 20.2375 74.6831 19.452 74.679 18.6442C74.7002 18.3053 74.6419 17.9661 74.5089 17.6536C74.3759 17.341 74.1722 17.0636 73.9137 16.8433C73.4221 16.4231 72.796 16.1932 72.1494 16.1954C71.5521 16.2121 70.9754 16.4161 70.5016 16.7785L69.9043 17.2967C69.6547 17.5289 69.3702 17.7212 69.0616 17.8668C68.6214 18.0455 68.1474 18.1252 67.6731 18.1001C67.2039 18.1276 66.7346 18.046 66.3024 17.8616C65.8701 17.6772 65.4866 17.3952 65.1821 17.0376C64.5552 16.209 64.2426 15.1853 64.2998 14.1483C64.2426 13.1114 64.5552 12.0877 65.1821 11.2591C65.4866 10.9015 65.8701 10.6195 66.3024 10.4351C66.7346 10.2507 67.2039 10.1691 67.6731 10.1966C68.12 10.1799 68.5645 10.2686 68.9704 10.4558C69.3126 10.6332 69.6239 10.8652 69.892 11.1425C70.0792 11.3482 70.2787 11.5428 70.4886 11.7255C70.9617 12.0903 71.5391 12.2946 72.1363 12.3086C72.7967 12.2999 73.4269 12.0296 73.8877 11.5571C74.1414 11.3153 74.3416 11.0233 74.476 10.6999C74.6097 10.3764 74.6749 10.0284 74.6659 9.67845C74.6831 8.86458 74.4122 8.07093 73.9007 7.43699C73.2431 6.63164 72.4086 5.98873 71.4616 5.55832C70.2698 5.03064 68.9759 4.77396 67.6731 4.80685C65.9366 4.77207 64.2192 5.173 62.6781 5.97292C61.2639 6.72513 60.1005 7.87345 59.3307 9.27676V9.30268Z" fill="#7378DE"/>
<path fill-rule="evenodd" clip-rule="evenodd" d="M94.5948 14.1742C94.5948 7.95518 91.9994 4.84566 86.8099 4.84566C85.4035 4.8261 84.0314 5.28277 82.9178 6.14129V3.32977C82.9699 1.10128 81.9839 0 79.9987 0C78.0136 0 76.9884 1.10128 76.9884 3.32977V20.173C76.9302 21.0637 77.1928 21.9459 77.7283 22.6606C78.0156 22.9686 78.3695 23.2078 78.7624 23.3603C79.1553 23.5129 79.5784 23.5749 79.9987 23.5416C81.9839 23.5416 82.9699 22.4144 82.9699 20.173V14.537C82.9075 13.4001 83.1119 12.2643 83.5665 11.2201C83.8442 10.8949 84.1891 10.6337 84.5779 10.4545C84.9667 10.2754 85.3898 10.1827 85.8177 10.1827C86.2456 10.1827 86.6687 10.2754 87.0568 10.4545C87.4456 10.6337 87.7905 10.8949 88.0682 11.2201C88.5139 12.2665 88.7094 13.4021 88.6394 14.537V20.1341C88.6394 22.3755 89.6255 23.5027 91.6106 23.5027C92.031 23.5369 92.454 23.4754 92.847 23.3228C93.2406 23.1702 93.5937 22.9305 93.881 22.6217C94.4166 21.9071 94.6785 21.0248 94.6202 20.1341V14.1742H94.5948Z" fill="#7378DE"/>
<path fill-rule="evenodd" clip-rule="evenodd" d="M55.8537 7.52763C55.8858 7.20542 55.8328 6.88045 55.6999 6.58505C55.5671 6.28968 55.359 6.03423 55.0965 5.84417C54.834 5.65411 54.5261 5.53607 54.2037 5.50182C53.8813 5.46757 53.5555 5.5183 53.2588 5.64896C49.3666 7.19074 49.0682 11.2849 49.0682 14.8221C49.0682 17.3355 49.185 20.0045 47.5502 20.0045C45.9154 20.0045 46.1101 17.4133 46.1101 15.0293C46.1101 11.2979 45.9414 7.25554 41.7248 5.71374C40.4533 5.18253 39.4543 6.12834 39.4543 7.55355C39.3765 11.0517 39.3894 16.0917 40.103 17.9963C40.6122 19.5939 41.6169 20.9884 42.9719 21.9783C44.327 22.9681 45.9621 23.502 47.641 23.5027C49.364 23.5066 51.0424 22.9569 52.4285 21.935C53.7265 20.9386 54.7087 19.5888 55.2568 18.0481C55.9705 16.1954 55.9445 11.0776 55.8537 7.52763Z" fill="#7378DE"/>
<path fill-rule="evenodd" clip-rule="evenodd" d="M47.6023 0C48.2156 0 48.8151 0.18161 49.3251 0.521864C49.835 0.862121 50.2324 1.34573 50.4671 1.91156C50.7018 2.47738 50.7632 3.09999 50.6435 3.70066C50.5239 4.30134 50.2286 4.8531 49.7949 5.28616C49.3613 5.71921 48.8088 6.01413 48.2073 6.13362C47.6058 6.2531 46.9823 6.19177 46.4157 5.9574C45.8491 5.72303 45.3648 5.32614 45.024 4.81691C44.6833 4.30768 44.5015 3.709 44.5015 3.09656C44.5015 2.2753 44.8282 1.48768 45.4097 0.90696C45.9912 0.326244 46.7799 0 47.6023 0Z" fill="#FCAD15"/>
</g>
<defs>
<clipPath id="clip0_70_278">
<rect width="94.6286" height="24" fill="white"/>
</clipPath>
</defs>
</svg>
