<svg width="182" height="333" viewBox="0 0 182 333" fill="none" xmlns="http://www.w3.org/2000/svg">
<g clip-path="url(#clip0_66_821)" filter="url(#filter0_d_66_821)">
<path d="M-43.3943 273.033C-77.1778 256.227 -101.992 233.896 -115.148 208.453C-129.676 180.361 -129.255 149.242 -113.935 118.446C-81.5156 53.2761 -2.11559 26.6296 63.0538 59.0486C128.223 91.4675 154.861 170.863 122.442 236.033C107.122 266.83 82.558 285.938 51.3889 291.298C23.1859 296.167 -9.6024 289.843 -43.3943 273.033Z" fill="#F56969"/>
<path d="M119.842 234.749C88.0871 298.583 21.7478 302.178 -42.0942 270.42C-44.8486 269.05 -47.5576 267.63 -50.2045 266.168C11.0137 293.589 73.055 287.669 103.439 226.59C117.99 197.353 120.919 163.688 111.639 132.378C102.358 101.067 81.5569 74.4361 53.4247 57.8499C56.2365 59.0071 59.0161 60.2726 61.762 61.6454C76.9436 69.1963 90.4889 79.6639 101.624 92.4503C112.76 105.237 121.267 120.092 126.66 136.166C132.054 152.241 134.227 169.221 133.057 186.136C131.887 203.051 127.397 219.57 119.842 234.749Z" fill="#F12D2D"/>
<path d="M46.184 159.059C41.9556 156.963 38.2542 153.938 35.3574 150.212C32.4603 146.486 30.4413 142.154 29.4519 137.539C29.2815 136.779 29.4193 135.982 29.8359 135.324C30.2532 134.666 30.9145 134.2 31.6744 134.029C32.4342 133.858 33.2316 133.996 33.8896 134.413C34.5484 134.83 35.0143 135.491 35.1847 136.251C36.0064 140.08 37.6956 143.668 40.1225 146.741C42.5494 149.814 45.6486 152.289 49.183 153.977C52.7166 155.664 56.5902 156.517 60.5053 156.472C64.4204 156.426 68.273 155.483 71.7669 153.715C72.4436 153.459 73.1906 153.464 73.8643 153.728C74.538 153.992 75.089 154.497 75.4116 155.145C75.7334 155.792 75.804 156.536 75.6087 157.233C75.4134 157.929 74.9672 158.529 74.3551 158.914C69.9896 161.114 65.1743 162.271 60.2862 162.296C55.3987 162.322 50.5715 161.213 46.184 159.059Z" fill="#333333"/>
<path d="M-27.1732 198.316C-33.1497 195.317 -38.3502 190.974 -42.3676 185.629C-46.3843 180.284 -49.1087 174.081 -50.3267 167.506C-50.4419 167.115 -50.4739 166.703 -50.4207 166.299C-50.3671 165.894 -50.2293 165.505 -50.0161 165.157C-49.8034 164.81 -49.5196 164.51 -49.1837 164.278C-48.8475 164.046 -48.4668 163.888 -48.0655 163.812C-47.6647 163.737 -47.2524 163.747 -46.8552 163.841C-46.4582 163.935 -46.0848 164.11 -45.7602 164.358C-45.4351 164.604 -45.1659 164.917 -44.9693 165.275C-44.7726 165.632 -44.6531 166.027 -44.6184 166.434C-43.5997 172.023 -41.313 177.304 -37.9349 181.872C-34.556 186.439 -30.1756 190.17 -25.1298 192.781C-20.0833 195.392 -14.5066 196.81 -8.8265 196.928C-3.14639 197.046 2.48466 195.861 7.63541 193.463C8.33758 193.137 9.14188 193.104 9.86888 193.371C10.2289 193.502 10.5591 193.704 10.8419 193.964C11.1234 194.224 11.3519 194.536 11.513 194.884C11.6741 195.233 11.7656 195.608 11.7809 195.992C11.797 196.375 11.7373 196.757 11.605 197.117C11.4731 197.478 11.2716 197.808 11.0119 198.091C10.7518 198.372 10.4394 198.601 10.0912 198.762C4.24701 201.497 -2.13951 202.878 -8.5924 202.801C-15.0445 202.724 -21.3959 201.191 -27.1732 198.316Z" fill="#333333"/>
</g>
<defs>
<filter id="filter0_d_66_821" x="-166" y="0" width="351.346" height="340.505" filterUnits="userSpaceOnUse" color-interpolation-filters="sRGB">
<feFlood flood-opacity="0" result="BackgroundImageFix"/>
<feColorMatrix in="SourceAlpha" type="matrix" values="0 0 0 0 0 0 0 0 0 0 0 0 0 0 0 0 0 0 127 0" result="hardAlpha"/>
<feOffset dy="4"/>
<feGaussianBlur stdDeviation="2"/>
<feComposite in2="hardAlpha" operator="out"/>
<feColorMatrix type="matrix" values="0 0 0 0 0 0 0 0 0 0 0 0 0 0 0 0 0 0 0.25 0"/>
<feBlend mode="normal" in2="BackgroundImageFix" result="effect1_dropShadow_66_821"/>
<feBlend mode="normal" in="SourceGraphic" in2="effect1_dropShadow_66_821" result="shape"/>
</filter>
<clipPath id="clip0_66_821">
<rect width="264.093" height="240" fill="white" transform="translate(-55.1062) rotate(26.4484)"/>
</clipPath>
</defs>
</svg>
