<svg width="428" height="157" viewBox="0 0 428 157" fill="none" xmlns="http://www.w3.org/2000/svg">
<g opacity="0.3">
<mask id="path-1-outside-1_1324_5075" maskUnits="userSpaceOnUse" x="-44" y="0" width="508" height="508" fill="black">
<rect fill="white" x="-44" width="508" height="508"/>
<path d="M460 254C460 392.071 348.071 504 210 504C71.9288 504 -40 392.071 -40 254C-40 115.929 71.9288 4 210 4C348.071 4 460 115.929 460 254ZM5.935 254C5.935 366.702 97.298 458.065 210 458.065C322.702 458.065 414.065 366.702 414.065 254C414.065 141.298 322.702 49.935 210 49.935C97.298 49.935 5.935 141.298 5.935 254Z"/>
</mask>
<path d="M460 254C460 392.071 348.071 504 210 504C71.9288 504 -40 392.071 -40 254C-40 115.929 71.9288 4 210 4C348.071 4 460 115.929 460 254ZM5.935 254C5.935 366.702 97.298 458.065 210 458.065C322.702 458.065 414.065 366.702 414.065 254C414.065 141.298 322.702 49.935 210 49.935C97.298 49.935 5.935 141.298 5.935 254Z" fill="#0F1141"/>
<path d="M460 254C460 392.071 348.071 504 210 504C71.9288 504 -40 392.071 -40 254C-40 115.929 71.9288 4 210 4C348.071 4 460 115.929 460 254ZM5.935 254C5.935 366.702 97.298 458.065 210 458.065C322.702 458.065 414.065 366.702 414.065 254C414.065 141.298 322.702 49.935 210 49.935C97.298 49.935 5.935 141.298 5.935 254Z" stroke="url(#paint0_linear_1324_5075)" stroke-opacity="0.2" stroke-width="8" mask="url(#path-1-outside-1_1324_5075)"/>
</g>
<defs>
<linearGradient id="paint0_linear_1324_5075" x1="159.51" y1="4" x2="81.3235" y2="287.578" gradientUnits="userSpaceOnUse">
<stop stop-color="#7378DE"/>
<stop offset="1" stop-color="#9C9FE8"/>
</linearGradient>
</defs>
</svg>
