<svg width="110" height="78" viewBox="0 0 110 78" fill="none" xmlns="http://www.w3.org/2000/svg">
<g clip-path="url(#clip0_1324_5545)">
<path d="M7.62171 27.6971C9.45037 26.9762 11.4549 26.8278 13.3697 27.2716L30.3339 31.0659C31.8906 31.4116 33.5081 31.3747 35.0477 30.9585C36.5872 30.5423 38.0026 29.7593 39.1733 28.6762L51.9052 16.8535C53.25 15.602 54.9187 14.7523 56.7218 14.4009C58.5249 14.0496 60.3909 14.2103 62.107 14.8653C63.8236 15.5202 65.3221 16.6429 66.4331 18.1061C67.5436 19.5695 68.2225 21.3145 68.3917 23.1439L70.0282 40.4474C70.177 42.0359 70.7105 43.5641 71.5819 44.9005C72.4537 46.2368 73.6373 47.3409 75.031 48.1176L90.2221 56.5743C91.8295 57.4658 93.1546 58.7901 94.0473 60.3966C94.9401 62.0031 95.3645 63.8277 95.2725 65.6637C95.1807 67.499 94.5759 69.2721 93.5271 70.7818C92.478 72.2911 91.0272 73.4764 89.3389 74.2026L73.3838 81.1016C71.9194 81.7342 70.6311 82.7144 69.6295 83.9564C68.6286 85.1986 67.9445 86.6658 67.6372 88.2312L64.2948 105.281C63.9427 107.084 63.0925 108.753 61.8399 110.098C60.5877 111.442 58.9836 112.409 57.2096 112.889C55.4354 113.368 53.5627 113.34 51.8037 112.809C50.0445 112.278 48.4695 111.264 47.2573 109.883L35.7658 96.8471C34.7111 95.6493 33.3808 94.7265 31.8894 94.1577C30.3983 93.5893 28.791 93.3923 27.2067 93.5841L9.95154 95.6581C8.128 95.8803 6.27876 95.5873 4.61336 94.812C2.94797 94.0368 1.53296 92.8101 0.529022 91.2716C-0.474755 89.7336 -1.02765 87.9444 -1.0666 86.108C-1.10572 84.2712 -0.629364 82.4604 0.30835 80.8808L9.15433 65.9201C9.96723 64.5474 10.4338 62.9974 10.5138 61.4041C10.5938 59.8107 10.2849 58.2218 9.61367 56.7745L2.30744 41.0047C1.73923 39.787 1.42669 38.4658 1.38909 37.1226C1.35149 35.7794 1.58961 34.4428 2.08882 33.1952C2.58797 31.9477 3.33759 30.8157 4.29137 29.8692C5.24515 28.9227 6.38284 28.1818 7.63417 27.6921M6.97612 26.0302C5.49273 26.6233 4.14554 27.5121 3.01659 28.6425C1.8876 29.7728 1.00046 31.1211 0.40912 32.6052C-0.180114 34.0674 -0.461035 35.6356 -0.416025 37.2115C-0.370976 38.7874 -0.000938859 40.337 0.670847 41.7632L7.9771 57.5331C8.52456 58.7202 8.77442 60.0229 8.70509 61.3283C8.63574 62.6337 8.24927 63.9026 7.57913 65.025L-1.26685 79.9858C-2.37454 81.8523 -2.93718 83.9918 -2.89085 86.1622C-2.84468 88.3323 -2.19152 90.446 -1.00551 92.2637C0.180507 94.0814 1.85218 95.5309 3.81968 96.4471C5.78735 97.3636 7.97236 97.7106 10.127 97.4487L27.3822 95.3747C28.6782 95.2177 29.9929 95.3787 31.2129 95.8439C32.4327 96.3087 33.5211 97.0634 34.3841 98.043L45.8772 111.083C47.3103 112.714 49.1718 113.911 51.2503 114.538C53.3291 115.165 55.5419 115.197 57.6376 114.63C59.7338 114.063 61.6288 112.921 63.1086 111.332C64.588 109.743 65.5928 107.771 66.0088 105.64L69.3528 88.5949C69.6039 87.3136 70.1632 86.1127 70.9823 85.0957C71.8014 84.0788 72.856 83.2768 74.0543 82.7586L90.0036 75.8571C91.9968 74.9977 93.71 73.5975 94.9481 71.8144C96.1862 70.0312 96.8999 67.9372 97.0089 65.7692C97.1176 63.6013 96.6167 61.4465 95.5633 59.5484C94.5095 57.6504 92.9455 56.0857 91.0482 55.0313L75.9176 46.5697C74.7777 45.9326 73.8097 45.0282 73.0959 43.9345C72.3826 42.8407 71.9452 41.5901 71.8212 40.2902L70.1881 22.9709C70.0295 21.1782 69.4524 19.4475 68.5033 17.9184C67.5537 16.3894 66.2587 15.1045 64.7221 14.1673C62.562 12.8147 60.015 12.2158 57.4782 12.4646C54.9419 12.7132 52.5595 13.7951 50.7032 15.5414L37.9614 27.3634C37.0035 28.2495 35.8451 28.8903 34.5856 29.2307C33.3257 29.5714 32.0024 29.6015 30.7284 29.3189L13.7584 25.522C11.4933 25.0043 9.12475 25.1817 6.96202 26.031L6.97612 26.0302Z" fill="#333333"/>
<path d="M90.2218 56.5743L75.039 48.1142C73.6453 47.3377 72.4617 46.2335 71.5899 44.8973C70.7186 43.5608 70.1851 42.0326 70.0363 40.4441L68.3998 23.1406C67.6365 15.0223 57.8933 11.3054 51.9132 16.8502L51.5377 17.2007C53.9104 17.3058 56.1651 18.2662 57.8847 19.9046C59.6042 21.5429 60.6722 23.7485 60.8919 26.1134L62.5284 43.4168C62.6772 45.0053 63.2107 46.5336 64.0821 47.87C64.9538 49.2062 66.1374 50.3104 67.5311 51.087L82.7098 59.5487C84.3172 60.4402 85.6423 61.7645 86.535 63.371C87.4278 64.9775 87.8522 66.8021 87.7602 68.638C87.6684 70.4734 87.0638 72.2469 86.0147 73.7562C84.9657 75.2654 83.5149 76.4508 81.8266 77.1769L65.8756 84.0743C64.4113 84.7069 63.1229 85.6871 62.1214 86.9291C61.1204 88.1713 60.4363 89.6385 60.129 91.204L56.7866 108.254C56.4303 110.122 55.5359 111.846 54.2134 113.214C56.5662 113.318 58.8783 112.575 60.7289 111.119C62.5799 109.662 63.8464 107.59 64.2986 105.279L67.6411 88.2296C67.9483 86.6641 68.6324 85.1969 69.6334 83.9547C70.635 82.7127 71.9233 81.7326 73.3877 81.0999L89.3428 74.2009C91.0304 73.4741 92.4806 72.2885 93.5286 70.7791C94.5771 69.2696 95.181 67.4968 95.2724 65.6616C95.364 63.8259 94.9393 62.0019 94.0467 60.3958C93.154 58.7892 91.8286 57.4655 90.2218 56.5743Z" fill="#FFBD39"/>
<path d="M33.3226 51.5219C34.4516 51.9988 35.4584 52.7244 36.2679 53.6446C37.0774 54.5649 37.6687 55.656 37.9977 56.8366C38.0323 56.9345 38.0463 57.0384 38.0391 57.142C38.0319 57.2455 38.0036 57.3465 37.9558 57.4386C37.9081 57.5308 37.842 57.6122 37.7616 57.6778C37.6812 57.7435 37.5882 57.7919 37.4883 57.8202C37.3884 57.8485 37.2838 57.856 37.1809 57.8423C37.078 57.8286 36.9791 57.7939 36.8901 57.7405C36.8011 57.687 36.724 57.6159 36.6636 57.5315C36.6032 57.4471 36.5607 57.3513 36.5387 57.2498C36.2641 56.2709 35.7689 55.368 35.091 54.6103C34.4131 53.8526 33.5706 53.2604 32.6282 52.879C31.6857 52.4977 30.6685 52.3373 29.6546 52.4102C28.6402 52.4834 27.6566 52.7877 26.7784 53.3002C26.6059 53.3836 26.4084 53.3987 26.2253 53.3425C26.0418 53.2866 25.8866 53.1633 25.7906 52.9975C25.6946 52.8317 25.6646 52.6357 25.7065 52.449C25.7487 52.2621 25.8601 52.098 26.0181 51.9897C27.1169 51.3525 28.348 50.9789 29.6155 50.8976C30.8828 50.8165 32.1517 51.0302 33.3226 51.5219Z" fill="#333333"/>
<path d="M54.9638 64.2002C55.9973 64.86 56.8686 65.7448 57.5128 66.7884C58.1573 67.8315 58.5578 69.0071 58.6846 70.2268C58.7006 70.3288 58.6958 70.4325 58.6702 70.5323C58.6446 70.632 58.5994 70.726 58.5365 70.8077C58.474 70.8893 58.3949 70.9574 58.305 71.0075C58.2154 71.058 58.1161 71.0896 58.0136 71.1001C57.9112 71.111 57.8075 71.101 57.7092 71.0702C57.6106 71.0399 57.5196 70.9897 57.4412 70.9228C57.3628 70.8559 57.2989 70.7739 57.2531 70.6816C57.2074 70.5892 57.1809 70.4886 57.1755 70.3856C57.0687 69.3747 56.7314 68.4014 56.1901 67.5413C55.6486 66.6807 54.9174 65.9556 54.0517 65.4218C53.1865 64.8879 52.2106 64.5595 51.1983 64.4619C50.1865 64.3641 49.1659 64.4996 48.2142 64.8576C48.1193 64.9015 48.0164 64.9254 47.9118 64.9276C47.8073 64.9298 47.7035 64.9103 47.6067 64.8704C47.5101 64.8308 47.4225 64.7715 47.3496 64.6964C47.2768 64.6213 47.2207 64.5317 47.1839 64.4339C47.1474 64.3358 47.1315 64.2314 47.137 64.127C47.1429 64.0224 47.17 63.9202 47.2169 63.8271C47.2637 63.7335 47.3296 63.6507 47.41 63.5836C47.4901 63.517 47.5835 63.4676 47.6841 63.4383C48.8741 62.9943 50.1503 62.8317 51.4136 62.9641C52.6763 63.0962 53.8915 63.5195 54.9638 64.2002Z" fill="#333333"/>
<path d="M38.9705 71.8639C38.3152 72.1137 37.6114 72.2098 36.913 72.144C36.2149 72.0788 35.541 71.8534 34.9436 71.4863C34.3462 71.1187 33.8413 70.6193 33.4676 70.0256C33.094 69.432 32.8619 68.7606 32.7891 68.0632C32.7646 67.8398 32.6524 67.6353 32.4774 67.4945C32.3028 67.356 32.0805 67.2922 31.8587 67.3166C31.6371 67.3413 31.4343 67.4529 31.2945 67.6265C31.225 67.7117 31.1733 67.81 31.1424 67.9155C31.1115 68.0209 31.1021 68.1314 31.1148 68.2407C31.2217 69.2091 31.5517 70.1397 32.079 70.9595C32.6061 71.7788 33.3159 72.4648 34.1528 72.964C34.9608 73.4491 35.8678 73.7451 36.8062 73.8306C37.7446 73.9156 38.6903 73.7882 39.5724 73.4567C39.7644 73.3639 39.9146 73.202 39.9921 73.0031C40.0696 72.8042 40.0692 72.5838 39.9906 72.3852C39.9121 72.187 39.7613 72.0256 39.5686 71.9337C39.376 71.8417 39.1557 71.8266 38.9521 71.8903L38.9705 71.8639Z" fill="#333333"/>
</g>
<defs>
<clipPath id="clip0_1324_5545">
<rect width="102.334" height="101.44" fill="white" transform="translate(-23 37.6733) rotate(-21.601)"/>
</clipPath>
</defs>
</svg>
