<svg width="160" height="166" viewBox="0 0 160 166" fill="none" xmlns="http://www.w3.org/2000/svg">
<path d="M112.235 20.901C112 2.73889 88.6621 -4.51277 78.1762 10.3183L65.1793 28.701C61.3652 34.0956 54.5112 36.4207 48.2021 34.4603L26.7028 27.78C9.35728 22.3904 -4.75139 42.3455 6.11349 56.9013L19.5802 74.9427C23.5321 80.2371 23.6255 87.4741 19.8114 92.8686L6.8144 111.251C-3.6715 126.082 10.9471 145.667 28.1479 139.832L49.4678 132.599C55.7242 130.477 62.6359 132.625 66.5878 137.919L80.0545 155.96C90.9194 170.516 114.063 162.665 113.829 144.503L113.538 121.992C113.453 115.385 117.631 109.476 123.888 107.353L145.208 100.121C162.409 94.2857 162.093 69.8488 144.748 64.4591L123.249 57.7789C116.939 55.8185 112.61 50.0185 112.525 43.4123L112.235 20.901Z" fill="#212640" stroke="url(#paint0_linear_66_831)" stroke-width="3.5"/>
<defs>
<linearGradient id="paint0_linear_66_831" x1="109.81" y1="-31.3928" x2="42.6311" y2="74" gradientUnits="userSpaceOnUse">
<stop stop-color="#FFB800"/>
<stop offset="1" stop-color="#FFEAB3"/>
</linearGradient>
</defs>
</svg>
