<svg width="40" height="42" viewBox="0 0 40 42" fill="none" xmlns="http://www.w3.org/2000/svg">
<path d="M25.9913 4.26663C25.957 1.60286 22.534 0.539287 20.9961 2.71451L15.322 10.7398C15.0094 11.182 14.4476 11.3726 13.9305 11.2119L4.54455 8.2955C2.00054 7.50502 -0.0687319 10.4318 1.52478 12.5666L7.40393 20.4429C7.72785 20.8769 7.73551 21.4701 7.42288 21.9123L1.74881 29.9376C0.210875 32.1128 2.35494 34.9852 4.87772 34.1294L14.1853 30.9719C14.6981 30.7979 15.2647 30.974 15.5886 31.4079L21.4677 39.2843C23.0612 41.4191 26.4556 40.2676 26.4213 37.6038L26.2945 27.7761C26.2875 27.2346 26.63 26.7502 27.1428 26.5762L36.4504 23.4187C38.9732 22.5629 38.927 18.9788 36.383 18.1884L26.9971 15.272C26.4799 15.1113 26.1251 14.6359 26.1181 14.0944L25.9913 4.26663Z" fill="#FFB800" stroke="url(#paint0_linear_1324_5123)" stroke-width="1.5"/>
<defs>
<linearGradient id="paint0_linear_1324_5123" x1="25.162" y1="-1.87855" x2="11.7262" y2="19.2" gradientUnits="userSpaceOnUse">
<stop stop-color="#FFB800"/>
<stop offset="1" stop-color="#FFEAB3"/>
</linearGradient>
</defs>
</svg>
