<svg width="93" height="142" viewBox="0 0 93 142" fill="none" xmlns="http://www.w3.org/2000/svg">
<g clip-path="url(#clip0_1324_5539)">
<path d="M12.8454 101.199C12.5583 98.7763 13.0138 96.3239 14.1515 94.166L24.0667 75.0066C24.9736 73.2477 25.4406 71.2947 25.4277 69.3156C25.4147 67.3365 24.9224 65.3904 23.9926 63.6431L13.8281 44.6269C12.7512 42.6175 12.2589 40.3462 12.4071 38.0713C12.5554 35.7964 13.338 33.6078 14.6665 31.7553C15.9949 29.9022 17.8159 28.4586 19.923 27.5879C22.0302 26.7176 24.339 26.4544 26.5879 26.8295L47.8711 30.3344C49.8245 30.6579 51.8271 30.5006 53.7064 29.8773C55.5855 29.2534 57.2847 28.1819 58.6572 26.7548L73.6075 11.1967C75.1854 9.54944 77.1935 8.37776 79.4036 7.81412C81.6137 7.25048 83.9376 7.31775 86.1118 8.00848C88.2854 8.69874 90.2222 9.98492 91.7025 11.7208C93.1822 13.4568 94.1462 15.5725 94.484 17.8282L97.7208 39.1564C98.0172 41.1138 98.7864 42.9697 99.9603 44.5642C101.135 46.1581 102.679 47.4428 104.461 48.3063L123.866 57.7062C125.919 58.6986 127.653 60.2465 128.871 62.1747C130.089 64.1024 130.742 66.3331 130.756 68.6136C130.771 70.8942 130.146 73.1329 128.952 75.0761C127.759 77.0193 126.045 78.5891 124.004 79.6075L104.728 89.2783C102.957 90.1655 101.429 91.4703 100.275 93.0803C99.1215 94.6902 98.3771 96.5568 98.1066 98.5188L95.1419 119.882C94.8322 122.141 93.8962 124.268 92.4394 126.021C90.9827 127.775 89.0633 129.085 86.8997 129.804C84.7366 130.522 82.4147 130.62 80.1985 130.087C77.9817 129.553 75.9592 128.409 74.3599 126.785L59.2013 111.44C57.8109 110.031 56.0982 108.981 54.2113 108.381C52.3244 107.782 50.3199 107.65 48.3709 107.998L27.1363 111.782C25.4954 112.079 23.811 112.037 22.1872 111.658C20.5634 111.278 19.0345 110.57 17.6951 109.577C16.3557 108.583 15.2341 107.326 14.3997 105.882C13.5652 104.438 13.0355 102.839 12.8435 101.182M10.641 101.447C10.8839 103.414 11.5248 105.312 12.5245 107.024C13.5242 108.736 14.8619 110.227 16.4561 111.406C18.0247 112.575 19.8179 113.408 21.7234 113.852C23.6288 114.296 25.6055 114.342 27.5294 113.986L48.764 110.202C50.3617 109.92 52.004 110.032 53.5488 110.528C55.0935 111.024 56.4941 111.889 57.6293 113.048L72.7879 128.392C74.6778 130.311 77.0677 131.663 79.687 132.293C82.3059 132.924 85.049 132.808 87.6053 131.959C90.1616 131.11 92.4295 129.562 94.1508 127.49C95.8726 125.419 96.9796 122.906 97.3462 120.238L100.311 98.8741C100.532 97.2692 101.141 95.7423 102.085 94.4252C103.028 93.1081 104.278 92.0405 105.726 91.3145L125.008 81.643C127.418 80.4386 129.443 78.5829 130.852 76.2865C132.262 73.99 133 71.3445 132.982 68.6503C132.964 65.9556 132.192 63.3203 130.753 61.0422C129.314 58.7646 127.265 56.9355 124.839 55.7628L105.44 46.3623C103.981 45.656 102.717 44.6052 101.755 43.3008C100.794 41.9964 100.164 40.4773 99.9213 38.8755L96.6797 17.5534C96.2783 14.8897 95.1394 12.3912 93.3908 10.3418C91.6421 8.29234 89.3546 6.77402 86.7872 5.9579C84.2199 5.14233 81.4756 5.06243 78.8647 5.72668C76.254 6.3915 73.8819 7.77388 72.0167 9.71764L57.0799 25.2015C55.955 26.3682 54.5636 27.2441 53.0256 27.755C51.4874 28.2653 49.8484 28.3951 48.2491 28.133L26.9481 24.619C24.7465 24.2427 22.4871 24.3883 20.352 25.044C18.217 25.7003 16.2657 26.8484 14.6553 28.3963C12.3493 30.5611 10.8256 33.4285 10.3224 36.5515C9.81911 39.674 10.3645 42.875 11.8736 45.6547L22.034 64.6826C22.7947 66.1123 23.1976 67.705 23.2081 69.3241C23.2187 70.9437 22.8367 72.5413 22.0948 73.981L12.1747 93.1466C10.8375 95.7014 10.3017 98.5999 10.6375 101.464L10.641 101.447Z" fill="#333333"/>
<path d="M73.6078 11.1967L58.6562 26.7438C57.2837 28.1709 55.5845 29.2424 53.7054 29.8663C51.8262 30.4896 49.8235 30.6469 47.8701 30.3234L26.5869 26.8185C16.6028 25.1686 9.06287 35.6868 13.8271 44.6159L14.129 45.1773C15.0051 42.3631 16.8703 39.9607 19.38 38.4149C21.8897 36.8691 24.8741 36.2845 27.7816 36.7682L49.0647 40.2732C51.0182 40.5966 53.0208 40.4394 54.9001 39.8161C56.7792 39.1922 58.4784 38.1207 59.8509 36.6936L74.8031 21.152C76.381 19.5047 78.3891 18.333 80.5992 17.7694C82.8093 17.2058 85.1332 17.273 87.3074 17.9638C89.481 18.654 91.4183 19.9401 92.8981 21.6761C94.3778 23.4121 95.3418 25.5278 95.6796 27.7834L98.9157 49.1062C99.2122 51.0635 99.9813 52.9195 101.155 54.514C102.33 56.1078 103.874 57.3925 105.656 58.2561L125.061 67.6559C127.191 68.6742 128.977 70.2924 130.2 72.3117C131.069 69.5212 130.908 66.5115 129.745 63.8303C128.582 61.1486 126.496 58.9739 123.865 57.7007L104.46 48.3008C102.679 47.4372 101.134 46.1526 99.9599 44.5587C98.786 42.9642 98.0168 41.1083 97.7204 39.1509L94.4836 17.8227C94.1447 15.5677 93.1803 13.4526 91.7001 11.7178C90.2199 9.98243 88.2833 8.69734 86.1097 8.00765C83.9356 7.31747 81.6124 7.25067 79.4028 7.81426C77.1926 8.3779 75.1851 9.55005 73.6078 11.1967Z" fill="#FFBD39"/>
<path d="M49.5608 77.8846C50.49 76.6804 51.6791 75.7015 53.0392 75.0208C54.3995 74.3402 55.8958 73.9755 57.4166 73.9538C57.545 73.9433 57.6742 73.9592 57.7962 74.0006C57.9181 74.0419 58.0304 74.1079 58.1259 74.1943C58.2214 74.2807 58.2982 74.3858 58.3516 74.503C58.4049 74.6203 58.4337 74.7472 58.436 74.876C58.4384 75.0048 58.4143 75.1327 58.3654 75.2518C58.3164 75.371 58.2436 75.4788 58.1513 75.5687C58.059 75.6586 57.9493 75.7287 57.8289 75.7745C57.7085 75.8203 57.5801 75.841 57.4514 75.8353C56.1898 75.8555 54.9497 76.1645 53.8262 76.7385C52.7026 77.3126 51.7256 78.1365 50.9701 79.147C50.2145 80.1575 49.7005 81.3275 49.4676 82.5674C49.2348 83.8079 49.2891 85.0845 49.6266 86.3004C49.6722 86.5338 49.6279 86.7755 49.5026 86.9775C49.3775 87.1801 49.1804 87.3274 48.9511 87.3902C48.7218 87.453 48.4772 87.427 48.2664 87.3178C48.0554 87.208 47.8937 87.0225 47.8136 86.7986C47.3962 85.2786 47.3369 83.683 47.64 82.1362C47.9432 80.5897 48.6007 79.1344 49.5608 77.8846Z" fill="#333333"/>
<path d="M71.6157 55.9206C72.7343 54.8889 74.0715 54.1229 75.5275 53.6796C76.9829 53.2358 78.5204 53.1267 80.0242 53.3601C80.1517 53.3731 80.2747 53.4116 80.3863 53.4739C80.4979 53.5361 80.5964 53.6201 80.6746 53.7214C80.7528 53.8222 80.8095 53.9386 80.8412 54.0623C80.8735 54.1859 80.88 54.315 80.8602 54.4414C80.8409 54.5677 80.7962 54.689 80.7281 54.7972C80.6606 54.9059 80.5717 54.9992 80.4666 55.0722C80.3615 55.1452 80.2428 55.196 80.1176 55.2217C79.9923 55.2474 79.8632 55.2473 79.7379 55.2213C78.491 55.03 77.2163 55.1272 76.0129 55.505C74.809 55.8828 73.7078 56.5312 72.7936 57.4013C71.8793 58.2709 71.1768 59.3383 70.7397 60.5223C70.3025 61.7057 70.1425 62.9733 70.2715 64.2286C70.2941 64.3563 70.2902 64.4875 70.2598 64.6136C70.2294 64.7398 70.1733 64.8581 70.0948 64.9617C70.0168 65.0652 69.9178 65.1516 69.8047 65.2152C69.6916 65.2789 69.5664 65.318 69.4372 65.3312C69.3081 65.3439 69.1778 65.33 69.0542 65.2905C68.9305 65.2504 68.8164 65.1855 68.7195 65.0998C68.622 65.014 68.5435 64.9089 68.4883 64.7911C68.4338 64.6739 68.4039 64.5462 68.4006 64.4162C68.2438 62.8478 68.4521 61.2648 69.0102 59.7906C69.5678 58.317 70.4599 56.9923 71.6157 55.9206Z" fill="#333333"/>
<path d="M75.7579 77.5358C75.8506 78.4012 75.7434 79.2763 75.4438 80.0936C75.1448 80.9108 74.6614 81.6483 74.032 82.2492C73.402 82.85 72.6431 83.2981 71.8126 83.5589C70.982 83.8196 70.103 83.886 69.243 83.7529C68.9672 83.7118 68.6862 83.7817 68.462 83.9473C68.2406 84.113 68.0938 84.3597 68.0529 84.6335C68.0126 84.9073 68.0824 85.1859 68.2465 85.4086C68.3268 85.5189 68.4285 85.6121 68.5453 85.6824C68.6621 85.7529 68.7916 85.7991 68.9269 85.8184C70.1229 85.9961 71.3439 85.8942 72.4944 85.5206C73.6443 85.1469 74.6919 84.5119 75.5554 83.6652C76.393 82.8489 77.0349 81.854 77.4341 80.7548C77.8327 79.6556 77.9787 78.4804 77.8597 77.317C77.809 77.0572 77.6622 76.8257 77.448 76.6699C77.2338 76.5141 76.9691 76.4448 76.7059 76.4764C76.4432 76.5079 76.2019 76.638 76.0307 76.8401C75.8594 77.0422 75.7716 77.3018 75.7838 77.5662L75.7579 77.5358Z" fill="#333333"/>
</g>
<defs>
<clipPath id="clip0_1324_5539">
<rect width="126.999" height="125.889" fill="white" transform="translate(15.1401 141.101) rotate(-96.8467)"/>
</clipPath>
</defs>
</svg>
